<svg width="24" height="24" viewBox="0 0 24 24" fill="none" xmlns="http://www.w3.org/2000/svg">
<g clip-path="url(#clip0_205_20)">
<path d="M9.14603 2.39301C8.52803 2.39301 7.35203 4.00301 7.35203 4.00301C7.35203 4.00301 6.89903 4.00301 5.54903 4.07301C4.19903 4.14301 2.99603 4.74301 1.39003 6.00701C-0.215974 7.27001 0.0110256 8.53701 0.0110256 8.53701C0.0110256 8.53701 1.50903 9.04401 1.50903 9.31801C1.50903 9.59301 0.198026 9.91801 0.198026 9.91801C1.04303 10.999 3.66503 12.008 4.32803 12.008H4.85203C3.76603 12.222 2.71603 12.812 1.39003 13.855C-0.215974 15.119 0.0110256 16.385 0.0110256 16.385C0.0110256 16.385 1.50903 16.892 1.50903 17.166C1.50903 17.441 0.198026 17.766 0.198026 17.766C1.04303 18.847 3.66503 19.856 4.32803 19.856C4.96303 19.856 5.40703 19.874 6.21003 19.724C6.27003 19.858 6.89603 21.185 8.17503 21.46C9.52203 21.75 10.267 21.522 10.267 21.522C10.267 21.522 10.334 20.927 10.027 20.333C11.197 20.448 12.522 20.478 13.819 20.281C17.422 19.734 19.201 18.868 19.782 18.753C20.364 18.638 23.686 20.229 23.888 19.857C24.091 19.484 23.158 18.669 23.593 17.569C24.027 16.469 23.059 15.742 23.596 14.864C24.133 13.985 24.026 12.645 23.888 12.574C23.593 12.424 20.465 13.981 19.782 13.854C18.096 13.543 18.405 13.341 16.135 12.827C15.228 12.621 15.354 12.743 15.153 12.591C15.019 12.489 14.888 12.475 14.698 12.285C17.713 11.742 19.25 11.01 19.782 10.905C20.364 10.789 23.686 12.381 23.888 12.008C24.09 11.636 23.158 10.821 23.593 9.72001C24.027 8.62001 23.059 7.89401 23.596 7.01501C24.133 6.13701 24.026 4.79701 23.888 4.72601C23.593 4.57501 20.465 6.13301 19.782 6.00601C18.096 5.69401 18.405 5.49301 16.135 4.97901C15.228 4.77301 15.354 4.89501 15.153 4.74301C14.953 4.59101 14.763 4.63701 14.371 4.00301C13.979 3.36801 9.45503 2.39301 9.14603 2.39301ZM8.09003 5.15801L8.13003 5.16001L8.24103 5.16601L8.63803 5.18601C9.16811 5.21387 9.69811 5.2432 10.228 5.27401C10.576 5.29401 10.868 5.31201 11.093 5.32801C11.954 5.38801 13.265 5.58801 14.27 5.79201C15.826 6.10701 17.09 6.57001 19.08 7.46501L19.757 7.77001C19.888 7.82901 19.952 7.99801 19.9 8.14701C19.848 8.29701 19.699 8.36901 19.567 8.31001C19.3421 8.20821 19.1171 8.10655 18.892 8.00501C16.93 7.12401 15.694 6.67001 14.181 6.36501C13.193 6.16501 11.901 5.96801 11.061 5.90801C10.7748 5.8884 10.4885 5.8704 10.202 5.85401L9.81803 5.83201C9.43503 5.81101 9.02503 5.78801 8.61503 5.76701L8.48903 5.76101C8.63783 6.14556 8.7513 6.54287 8.82803 6.94801C8.84803 7.05801 8.86303 7.16401 8.87303 7.26801C8.90703 7.60401 8.84503 8.08401 8.71103 8.68801C8.66703 8.88801 8.61503 9.09701 8.55803 9.31201C8.46944 9.64598 8.37275 9.97774 8.26803 10.307L8.24803 10.371L8.24003 10.394C8.19003 10.544 8.04203 10.62 7.91003 10.564C7.77703 10.507 7.71003 10.339 7.76003 10.189L7.76703 10.169C7.79787 10.075 7.82754 9.98071 7.85603 9.88601C7.92803 9.65001 8.00003 9.39901 8.06803 9.14501C8.12303 8.93701 8.17203 8.73701 8.21403 8.54601C8.33403 8.00601 8.38903 7.58001 8.36403 7.33301C8.35491 7.24287 8.34223 7.15314 8.32603 7.06401C8.27487 6.79405 8.2047 6.52806 8.11603 6.26801C8.03842 6.0358 7.95033 5.80723 7.85203 5.58301C7.76103 5.38401 7.89303 5.14801 8.09003 5.15801ZM6.43703 5.32801C6.50303 5.33001 6.56703 5.36101 6.61603 5.41901C6.77137 5.61666 6.91081 5.82632 7.03303 6.04601C7.25703 6.45001 7.40703 6.86201 7.44803 7.26701C7.47103 7.49801 7.45603 7.75701 7.41003 8.03801C7.36603 8.30801 7.29503 8.59301 7.20403 8.88301C7.13096 9.11594 7.04754 9.3455 6.95403 9.57101C6.89103 9.71501 6.73803 9.77401 6.61103 9.70301C6.48403 9.63301 6.43103 9.45801 6.49403 9.31401L6.51203 9.27001C6.5899 9.07894 6.65996 8.88478 6.72203 8.68801C6.80403 8.42501 6.86803 8.17001 6.90703 7.93301C6.94258 7.73511 6.95333 7.53356 6.93903 7.33301C6.90903 7.02701 6.78603 6.69301 6.59903 6.35501C6.49441 6.16676 6.37539 5.98689 6.24303 5.81701C6.19623 5.75839 6.17158 5.68517 6.17341 5.61019C6.17523 5.5352 6.20343 5.46327 6.25303 5.40701C6.27606 5.38113 6.30445 5.36058 6.33622 5.34676C6.368 5.33295 6.40239 5.32721 6.43703 5.32801ZM3.39503 6.29801C4.01503 6.29801 4.51703 6.86801 4.51703 7.57001C4.51703 8.27401 4.01403 8.84301 3.39503 8.84301C2.84003 8.84301 2.37903 8.38601 2.28903 7.78501C2.36603 8.23701 2.71703 8.57801 3.13803 8.57801C3.61503 8.57801 4.00203 8.13801 4.00203 7.59701C4.00203 7.05501 3.61503 6.61601 3.13803 6.61601C2.66403 6.61601 2.27803 7.04801 2.27303 7.58401V7.57001C2.27303 6.86701 2.77503 6.29801 3.39503 6.29801ZM2.88003 7.62201C2.94207 7.62231 3.00146 7.65049 3.04515 7.70038C3.08885 7.75026 3.11326 7.81775 3.11303 7.88801C3.11303 7.95809 3.08851 8.02532 3.04484 8.07499C3.00118 8.12465 2.94191 8.15271 2.88003 8.15301C2.81796 8.15301 2.75845 8.12509 2.71456 8.07539C2.67068 8.02569 2.64603 7.95829 2.64603 7.88801C2.64591 7.85312 2.65188 7.81855 2.66358 7.78629C2.67529 7.75402 2.69251 7.72469 2.71425 7.69998C2.73599 7.67526 2.76183 7.65565 2.79027 7.64227C2.81872 7.62889 2.84922 7.62201 2.88003 7.62201ZM6.20903 11.875L6.21503 11.888L6.10003 11.893L6.20903 11.875ZM8.08903 13.005L8.12903 13.008L8.24003 13.013L8.63703 13.033C9.16711 13.0609 9.69711 13.0902 10.227 13.121C10.575 13.141 10.867 13.16 11.092 13.176C11.953 13.236 13.264 13.436 14.269 13.639C15.825 13.954 17.089 14.417 19.079 15.312L19.756 15.617C19.887 15.677 19.951 15.845 19.899 15.994C19.847 16.144 19.698 16.216 19.566 16.157C19.3411 16.0552 19.1161 15.9535 18.891 15.852C16.929 14.971 15.693 14.518 14.18 14.212C13.192 14.012 11.9 13.815 11.06 13.756C10.6459 13.727 10.2316 13.7013 9.81703 13.679L8.61403 13.614L8.48803 13.608C8.63683 13.9926 8.7503 14.3899 8.82703 14.795C8.84703 14.905 8.86203 15.012 8.87203 15.115C8.90603 15.451 8.84403 15.932 8.71003 16.535C8.66603 16.735 8.61403 16.945 8.55703 17.16C8.46284 17.5153 8.35947 17.8681 8.24703 18.218L8.23903 18.241C8.18903 18.391 8.04103 18.467 7.90903 18.411C7.77603 18.354 7.70903 18.187 7.75903 18.036L7.76603 18.016C7.79687 17.922 7.82654 17.8277 7.85503 17.733C7.92703 17.497 7.99903 17.246 8.06703 16.993C8.12203 16.785 8.17103 16.584 8.21303 16.393C8.33303 15.854 8.38803 15.427 8.36303 15.18C8.35388 15.0902 8.34121 15.0008 8.32503 14.912C8.27387 14.6421 8.2037 14.3761 8.11503 14.116C8.03745 13.8835 7.94936 13.6546 7.85103 13.43C7.76003 13.232 7.89203 12.995 8.08903 13.005ZM6.43603 13.175C6.50203 13.177 6.56603 13.208 6.61503 13.266C6.77037 13.4637 6.90981 13.6733 7.03203 13.893C7.25603 14.298 7.40603 14.709 7.44703 15.115C7.47003 15.345 7.45503 15.604 7.40903 15.885C7.36503 16.155 7.29403 16.44 7.20303 16.73C7.12996 16.9629 7.04654 17.1925 6.95303 17.418C6.89003 17.562 6.73703 17.622 6.61003 17.551C6.48303 17.48 6.43003 17.305 6.49303 17.161C6.51724 17.1037 6.54058 17.046 6.56303 16.988C6.62045 16.8387 6.67315 16.6876 6.72103 16.535C6.80303 16.273 6.86703 16.017 6.90603 15.78C6.94158 15.5821 6.95233 15.3806 6.93803 15.18C6.90803 14.875 6.78503 14.54 6.59803 14.202C6.49337 14.0141 6.37434 13.8346 6.24203 13.665C6.19496 13.6063 6.17016 13.5329 6.17199 13.4577C6.17382 13.3825 6.20216 13.3103 6.25203 13.254C6.27516 13.2283 6.30359 13.2079 6.33535 13.1943C6.36712 13.1807 6.40147 13.1741 6.43603 13.175ZM3.39403 14.145C4.01403 14.145 4.51603 14.715 4.51603 15.418C4.51603 16.121 4.01303 16.691 3.39403 16.691C2.83903 16.691 2.37803 16.233 2.28803 15.633C2.36503 16.084 2.71603 16.425 3.13703 16.425C3.61403 16.425 4.00103 15.986 4.00103 15.445C4.00103 14.902 3.61403 14.463 3.13703 14.463C2.66303 14.463 2.27703 14.896 2.27203 15.432V15.418C2.27203 14.715 2.77403 14.145 3.39403 14.145ZM2.88003 15.471C2.94191 15.4713 3.00118 15.4994 3.04484 15.549C3.08851 15.5987 3.11303 15.6659 3.11303 15.736C3.11303 15.8061 3.08851 15.8733 3.04484 15.923C3.00118 15.9727 2.94191 16.0007 2.88003 16.001C2.81796 16.001 2.75845 15.9731 2.71456 15.9234C2.67068 15.8737 2.64603 15.8063 2.64603 15.736C2.64603 15.6657 2.67068 15.5983 2.71456 15.5486C2.75845 15.4989 2.81796 15.471 2.88003 15.471Z" fill="white"/>
</g>
<defs>
<clipPath id="clip0_205_20">
<rect width="24" height="24" fill="white"/>
</clipPath>
</defs>
</svg>
